REM Ripping Tool: trurip

FILE "Quiz Avenue III (1994)(NEC Avenue)(JP).img" BINARY
  TRACK 01 AUDIO
    INDEX 01 00:00:00
  TRACK 02 MODE1/2352
    INDEX 00 00:44:65
    INDEX 01 00:47:65
  TRACK 03 AUDIO
    INDEX 00 12:14:62
    INDEX 01 12:16:62
  TRACK 04 AUDIO
    INDEX 01 14:42:28
  TRACK 05 AUDIO
    INDEX 01 18:55:22
  TRACK 06 AUDIO
    INDEX 01 20:21:16
  TRACK 07 AUDIO
    INDEX 01 21:57:05
  TRACK 08 MODE1/2352
    INDEX 00 22:15:70
    INDEX 01 22:18:70

REM DISC HASHES
REM CRC32 : c7743f2a
REM MD5   : 363eee2801b0e48b9661775ebe209d30
REM SHA1  : 4b8edddb75094f2300622e520beee2e65fa7913a

REM Gap Append Method: Prev [crc32]
REM Trk 01: ccd25d2f
REM Trk 02: b4a75865
REM Trk 03: 5b5c74d2
REM Trk 04: ff3b3de0
REM Trk 05: bb7c2c2f
REM Trk 06: efe2e714
REM Trk 07: c32571e4
REM Trk 08: 81e1ab7c

REM Gap Append Method: Prev [md5]
REM Trk 01: 7938d9aa88f644b60389fa8246f2052e
REM Trk 02: c2c454c8497af6fb517a7600c621bb39
REM Trk 03: 6b3e8a4b8f66eee7a206156cf50ea27d
REM Trk 04: 7c5eceec47a9ba462b9225666f54bcfe
REM Trk 05: 11bfcd6d5a1a6e0847373c8ecfa9742d
REM Trk 06: a20ebce8c5b5f5f9de041965e684627e
REM Trk 07: 18345bd7d403efacb75ce2314f524c39
REM Trk 08: 3b8a65ca44423ca9535860c1ed5d2980

REM Gap Append Method: Prev [sha1]
REM Trk 01: 0fc7f8840f23f43ebfb7041f71427c165f368105
REM Trk 02: b2c4d14064a9d4f528fdbccce78868a07716a06a
REM Trk 03: 602670374ff56bef8c9973c5a7f508dc0b0ceb38
REM Trk 04: b9b5ebaec00c5823281db747f5440b8f3e907782
REM Trk 05: 7b224fab876f26258463112f35ad47dd68b4ce35
REM Trk 06: 32d38c074747be24ee393ee6a8841cb9ffbb7e03
REM Trk 07: 13187ba34e61efa86934708d608ca722e0bafe1b
REM Trk 08: f9c0bd0cf2520bd63b042955f6f74846d75a5143

REM Gap Append Method: None [crc32]
REM Trk 01: b979500c
REM Trk 02: cd6346be
REM Trk 03: 5b5c74d2
REM Trk 04: ff3b3de0
REM Trk 05: bb7c2c2f
REM Trk 06: efe2e714
REM Trk 07: 93ef285b
REM Trk 08: 81e1ab7c
REM Gap 02: 16e86594
REM Gap 03: 7abe247f
REM Gap 08: 01b8b521

REM Gap Append Method: None [md5]
REM Trk 01: a25a2c129b7100092cc40e9b6e176a63
REM Trk 02: 8a044f91d076bce78e31fe18a5804384
REM Trk 03: 6b3e8a4b8f66eee7a206156cf50ea27d
REM Trk 04: 7c5eceec47a9ba462b9225666f54bcfe
REM Trk 05: 11bfcd6d5a1a6e0847373c8ecfa9742d
REM Trk 06: a20ebce8c5b5f5f9de041965e684627e
REM Trk 07: 0781ac66935167702d734686d77b484d
REM Trk 08: 3b8a65ca44423ca9535860c1ed5d2980
REM Gap 02: fbd314ec9876f082e173fbb5baf092aa
REM Gap 03: 9df204fbc98bb8965081cb30a89715fc
REM Gap 08: 6121557185e8d4e4470d357edbbdd6f2

REM Gap Append Method: None [sha1]
REM Trk 01: 9ac3f1a11d434d186466917f1c7955bf7670c910
REM Trk 02: a3745d9dbffc95620637d5c28972dae24b793a6d
REM Trk 03: 602670374ff56bef8c9973c5a7f508dc0b0ceb38
REM Trk 04: b9b5ebaec00c5823281db747f5440b8f3e907782
REM Trk 05: 7b224fab876f26258463112f35ad47dd68b4ce35
REM Trk 06: 32d38c074747be24ee393ee6a8841cb9ffbb7e03
REM Trk 07: 47d4de36e9800b83049b856d06a02ee774bdea35
REM Trk 08: f9c0bd0cf2520bd63b042955f6f74846d75a5143
REM Gap 02: 08a9af7bae10b281a8edaad6e9ea6cd1646d0ce0
REM Gap 03: cbe29e0bd725ef1194f8c47619dd42078e841de2
REM Gap 08: 0ad4ae65202cfae48ba524b0eb5b87f89e6876b1

REM Gap Append Method: Next [crc32]
REM Trk 01: b979500c
REM Trk 02: bb96eca1
REM Trk 03: cb3a80ae
REM Trk 04: ff3b3de0
REM Trk 05: bb7c2c2f
REM Trk 06: efe2e714
REM Trk 07: 93ef285b
REM Trk 08: 3ff05f8d

REM Gap Append Method: Next [md5]
REM Trk 01: a25a2c129b7100092cc40e9b6e176a63
REM Trk 02: dca2bc87e6a38ffe5415327b6ced3efa
REM Trk 03: dfb7112c48f51055b89bf788326ddc38
REM Trk 04: 7c5eceec47a9ba462b9225666f54bcfe
REM Trk 05: 11bfcd6d5a1a6e0847373c8ecfa9742d
REM Trk 06: a20ebce8c5b5f5f9de041965e684627e
REM Trk 07: 0781ac66935167702d734686d77b484d
REM Trk 08: eec9b7d435e8303b7a58d7a80b3514b5

REM Gap Append Method: Next [sha1]
REM Trk 01: 9ac3f1a11d434d186466917f1c7955bf7670c910
REM Trk 02: d61706953583f5cac7b47bfdaa449453e3f51891
REM Trk 03: 25407f901dc8157e3308dcf69c84982247454629
REM Trk 04: b9b5ebaec00c5823281db747f5440b8f3e907782
REM Trk 05: 7b224fab876f26258463112f35ad47dd68b4ce35
REM Trk 06: 32d38c074747be24ee393ee6a8841cb9ffbb7e03
REM Trk 07: 47d4de36e9800b83049b856d06a02ee774bdea35
REM Trk 08: cfa576b3b0ede6aa873d4992251b61a66c9b3415

